<svg id="cdc15cdd-44ef-4bf1-a130-cf5c4e600ccf" data-name="Calque 1" xmlns="http://www.w3.org/2000/svg" xmlns:xlink="http://www.w3.org/1999/xlink" viewBox="0 0 255.25 43.67"><defs><linearGradient id="76131e31-95a7-494f-be6b-a031a6084e4a" x1="245.69" y1="32.52" x2="271.26" y2="32.52" gradientUnits="userSpaceOnUse"><stop offset="0" stop-color="#89f7fe"/><stop offset="0" stop-color="#88f5fe"/><stop offset="0" stop-color="#85eefe"/><stop offset="0" stop-color="#80e3fe"/><stop offset="0" stop-color="#7cd9fe"/><stop offset="0.51" stop-color="#7bd7fe"/><stop offset="0.7" stop-color="#78d0fe"/><stop offset="0.83" stop-color="#73c5fe"/><stop offset="0.94" stop-color="#6cb4ff"/><stop offset="1" stop-color="#66a6ff"/></linearGradient></defs><title>android-logo</title><path d="M35.84,23.9a9,9,0,0,1,0,3.47,23.43,23.43,0,0,1-1.24,4.45,30.54,30.54,0,0,1-2.3,4.72A24.57,24.57,0,0,1,29.1,40.8a15.13,15.13,0,0,1-3.82,3.05A8.7,8.7,0,0,1,21,45a5.33,5.33,0,0,1-3.38-.89,3.91,3.91,0,0,1-1.43-2.34,8.83,8.83,0,0,1,0-3.36,27.43,27.43,0,0,1,1-3.89c.43-1.33.92-2.66,1.45-4s1-2.53,1.41-3.61.71-2,.91-2.77.18-1.25-.07-1.47-.12-.41.31-.66a3.34,3.34,0,0,1,1.57-.42,4.13,4.13,0,0,1,1.94.42,2.81,2.81,0,0,1,1.44,1.88A5.85,5.85,0,0,1,26,27.23a28.62,28.62,0,0,1-1.54,4.1c-.66,1.42-1.36,2.84-2.09,4.24a36,36,0,0,0-1.74,3.8,6.2,6.2,0,0,0-.51,2.72c.08.69.6,1,1.57,1a3.69,3.69,0,0,0,2.7-1.43,16.71,16.71,0,0,0,2.39-3.62,35.9,35.9,0,0,0,1.95-4.73q.84-2.57,1.4-4.84a29.79,29.79,0,0,0,.75-3.91,4.18,4.18,0,0,0,0-1.92c-.12-.19,0-.41.43-.66a3.08,3.08,0,0,1,1.5-.42,3.45,3.45,0,0,1,1.78.42A2.83,2.83,0,0,1,35.84,23.9Z" transform="translate(-16.01 -2.91)" style="fill:#403f4c"/><path d="M49.58,32.88c-.47.92-1,1.91-1.67,2.95S46.58,37.94,45.83,39a30.58,30.58,0,0,1-2.33,2.91,14.23,14.23,0,0,1-2.41,2.15,4.11,4.11,0,0,1-2.35.85,2.66,2.66,0,0,1-1.61-.38A3.11,3.11,0,0,1,36,43.34a5.27,5.27,0,0,1-.56-1.88,10.42,10.42,0,0,1,0-2.37,19.18,19.18,0,0,1,.73-3.28c.36-1.16.77-2.31,1.24-3.47s1-2.28,1.43-3.36.91-2.05,1.27-2.93a15.12,15.12,0,0,0,.75-2.2c.14-.6.1-1-.12-1.22s-.12-.41.31-.66a3.34,3.34,0,0,1,1.57-.42,4.13,4.13,0,0,1,1.94.42A2.77,2.77,0,0,1,46,23.85a5.64,5.64,0,0,1-.14,3.3,26.31,26.31,0,0,1-1.57,4.06q-1,2.11-2.16,4.18c-.76,1.37-1.4,2.6-1.92,3.68a9.27,9.27,0,0,0-.89,2.58q-.12,1,1,.87a2.36,2.36,0,0,0,1.2-.75A21.55,21.55,0,0,0,43.11,40q.89-1.1,1.83-2.46c.62-.91,1.21-1.82,1.78-2.72s1.06-1.77,1.5-2.58a15.64,15.64,0,0,0,.94-2,.69.69,0,0,1,.47-.47,1.06,1.06,0,0,1,.61,0,.81.81,0,0,1,.44.38.58.58,0,0,1,0,.61C50.41,31.23,50.05,32,49.58,32.88Zm-2-14.61c.17-.38.36-.75.56-1.13s.39-.73.56-1.08a1.86,1.86,0,0,0,.26-.8,2.69,2.69,0,0,0-.7-1.92,4.86,4.86,0,0,0-1.57-1.13,4.22,4.22,0,0,0-1.57-.37c-.47,0-.71.11-.71.33a1.85,1.85,0,0,1-.28.8l-.63,1.12c-.24.41-.45.79-.64,1.15a2.14,2.14,0,0,0-.28.87,2.7,2.7,0,0,0,.75,1.95,4.73,4.73,0,0,0,1.62,1.12,4.23,4.23,0,0,0,1.62.35c.5,0,.75-.12.75-.37A2.33,2.33,0,0,1,47.54,18.27Z" transform="translate(-16.01 -2.91)" style="fill:#403f4c"/><path d="M67.73,29.76a.75.75,0,0,1,.28,1,39,39,0,0,1-1.9,3.54,32.62,32.62,0,0,1-2.48,3.61,29.52,29.52,0,0,1-2.93,3.24,16.44,16.44,0,0,1-3.22,2.42,10.39,10.39,0,0,1-3.4,1.22,6.22,6.22,0,0,1-3.42-.43A5.17,5.17,0,0,1,48,42.21a7.39,7.39,0,0,1-1-3.16,12,12,0,0,1,.28-3.59,24.75,24.75,0,0,1,3.54-8.26,15.94,15.94,0,0,1,2.93-3.26,11.32,11.32,0,0,1,3.19-1.87,9.46,9.46,0,0,1,3.33-.61,3.45,3.45,0,0,1,2.56.84,3,3,0,0,1,.82,2.2,7.35,7.35,0,0,1-.75,3,13.35,13.35,0,0,1-2.13,3.21,16.39,16.39,0,0,1-3.36,2.86,15.18,15.18,0,0,1-4.41,2,17.65,17.65,0,0,0-.47,2.41,10.16,10.16,0,0,0,0,2.19,4.42,4.42,0,0,0,.44,1.64,1.47,1.47,0,0,0,1.06.79,3.9,3.9,0,0,0,2.23-.3,10.4,10.4,0,0,0,2.44-1.48,19.9,19.9,0,0,0,2.43-2.3,32.07,32.07,0,0,0,2.26-2.77,29.3,29.3,0,0,0,1.87-2.88,18.7,18.7,0,0,0,1.29-2.65.9.9,0,0,1,.49-.52A.78.78,0,0,1,67.73,29.76ZM54,32.71c-.16.35-.28.66-.38.94A12.57,12.57,0,0,0,58.23,31a13.38,13.38,0,0,0,2.7-3.37,6.74,6.74,0,0,0,.92-2.89c0-.81-.26-1.23-.83-1.26-.84,0-1.9.78-3.19,2.43A33.38,33.38,0,0,0,54,32.71Z" transform="translate(-16.01 -2.91)" style="fill:#403f4c"/><path d="M84.57,27.37a12.62,12.62,0,0,1-.7,3.35c-.41,1.17-.87,2.32-1.39,3.45s-1,2.19-1.54,3.21A26.11,26.11,0,0,0,79.74,40a4.18,4.18,0,0,0-.35,1.81c0,.45.38.68,1,.68a2.13,2.13,0,0,0,1.17-.68,15.91,15.91,0,0,0,1.64-1.79c.6-.73,1.21-1.56,1.85-2.48s1.25-1.84,1.81-2.75,1.06-1.77,1.5-2.6a16.32,16.32,0,0,0,.94-2,.69.69,0,0,1,.47-.47,1.05,1.05,0,0,1,.61,0,.78.78,0,0,1,.44.38.56.56,0,0,1,0,.61c-.25.53-.61,1.26-1.08,2.18s-1,1.91-1.66,2.95S86.73,37.94,86,39a32.19,32.19,0,0,1-2.32,2.91,14.67,14.67,0,0,1-2.42,2.15,4.08,4.08,0,0,1-2.34.85,2.39,2.39,0,0,1-1.6-.45,3.68,3.68,0,0,1-1.08-1.33,6.59,6.59,0,0,1-.58-1.9,7.67,7.67,0,0,1,0-2.14,18.87,18.87,0,0,1,.89-3.8c.44-1.25.92-2.44,1.43-3.58s1-2.19,1.53-3.15a19.61,19.61,0,0,0,1.12-2.48,3.25,3.25,0,0,0,.26-1.62c-.08-.38-.44-.55-1.1-.52a3.21,3.21,0,0,0-1.45.82,21.41,21.41,0,0,0-2,2c-.74.8-1.48,1.68-2.23,2.63s-1.43,1.87-2,2.74c-.59,1.22-1.21,2.44-1.85,3.64s-1.21,2.34-1.71,3.4A20.18,20.18,0,0,0,67.33,42a2.67,2.67,0,0,0,0,1.88c.12.25,0,.51-.31.77a2,2,0,0,1-1.26.43,2.85,2.85,0,0,1-1.6-.5,3.26,3.26,0,0,1-1.24-1.92,5.58,5.58,0,0,1,.05-3,29.83,29.83,0,0,1,1.22-3.92c.53-1.39,1.12-2.82,1.78-4.27s1.25-2.79,1.78-4a26.49,26.49,0,0,0,1.17-3.14c.25-.88.25-1.44,0-1.69s-.11-.41.31-.66a3.39,3.39,0,0,1,1.59-.42,4.1,4.1,0,0,1,2,.42,2.81,2.81,0,0,1,1.41,1.88,3.87,3.87,0,0,1,.14,1.34,8.68,8.68,0,0,1-.24,1.52c.6-.69,1.2-1.34,1.81-2a16.13,16.13,0,0,1,1.85-1.64A11,11,0,0,1,79.55,22a4.11,4.11,0,0,1,1.74-.42A2.83,2.83,0,0,1,84,23.14,7,7,0,0,1,84.57,27.37Z" transform="translate(-16.01 -2.91)" style="fill:#403f4c"/><path d="M94.89,43.92l0,0a11.65,11.65,0,0,1-2,.8,5.55,5.55,0,0,1-1.59.28,4,4,0,0,1-2.89-1,4.65,4.65,0,0,1-1.33-2.28,6.27,6.27,0,0,1-.1-2.62,4,4,0,0,1,.89-2,5.64,5.64,0,0,1,1.69-1.31,2.28,2.28,0,0,1,1.27-.24,1.72,1.72,0,0,1,1,.42,1.18,1.18,0,0,1,.45.94,1.35,1.35,0,0,1-.45,1,1.44,1.44,0,0,1-1,.43,1.38,1.38,0,0,1-.79-.26,1.3,1.3,0,0,1-.52-.68,3.8,3.8,0,0,0-.84,1.69,4.79,4.79,0,0,0-.1,1.87,2.89,2.89,0,0,0,.73,1.53,2.25,2.25,0,0,0,1.62.68,2.78,2.78,0,0,0,1.08-.35,5.21,5.21,0,0,0,1.43-1.18,8.09,8.09,0,0,0,1.29-2.11,9.47,9.47,0,0,0,.68-3.12,16.54,16.54,0,0,0-.4-4.27,25.35,25.35,0,0,0-2-5.48c-.32.59-.67,1.24-1.06,1.94s-.74,1.37-1,2a.84.84,0,0,1-.57.37,1.15,1.15,0,0,1-.61-.07.71.71,0,0,1-.39-.37.61.61,0,0,1,.07-.59c.25-.53.48-1,.7-1.43s.44-.82.66-1.2.42-.76.61-1.15.39-.8.61-1.24a6.11,6.11,0,0,1-1.08-3.52A4.26,4.26,0,0,1,91,20.45a4.7,4.7,0,0,1,.56-1.27,3.59,3.59,0,0,1,1.11-1.08,3.44,3.44,0,0,1,1.83-.44,2.43,2.43,0,0,1,1.71.51,1.9,1.9,0,0,1,.58,1.32,4,4,0,0,1-.32,1.75,9.85,9.85,0,0,1-1,1.9l-.14.29a25.38,25.38,0,0,1,2.93,4A19.43,19.43,0,0,1,100,31.12a12.76,12.76,0,0,1,.63,3.23,9.57,9.57,0,0,1-.26,2.82,43.33,43.33,0,0,0,2.77-3.52,29.59,29.59,0,0,0,2-3.28.78.78,0,0,1,.42-.45.94.94,0,0,1,1.1.64.86.86,0,0,1-.07.61,28.67,28.67,0,0,1-2.6,4.31c-1,1.35-2.07,2.69-3.26,4a24.23,24.23,0,0,1-2.65,2.54,13.52,13.52,0,0,1-3.12,1.87Z" transform="translate(-16.01 -2.91)" style="fill:#403f4c"/><path d="M117,25.26a1.31,1.31,0,0,1,.21-.71,2.39,2.39,0,0,1,.54-.56.77.77,0,0,0-.75-.56,2.18,2.18,0,0,0-1.45.58,10.34,10.34,0,0,0-1.71,1.83,23.94,23.94,0,0,0-1.9,3c-.66,1.17-1.32,2.48-2,3.91a17.41,17.41,0,0,0-1,2.93,13.81,13.81,0,0,0-.45,3,8.07,8.07,0,0,0,.28,2.51,2,2,0,0,0,1.18,1.4,1.84,1.84,0,0,0,2.06-.63,15.51,15.51,0,0,0,2.21-2.84,43.3,43.3,0,0,0,2.18-3.94c.7-1.44,1.35-2.75,1.94-3.94.6-1.53,1.25-3.15,2-4.85s1.44-3.39,2.14-5.05l2-4.78c.64-1.53,1.18-2.9,1.64-4.1s.78-2.19,1-3,.23-1.23.07-1.38-.11-.41.31-.66A3.34,3.34,0,0,1,129,7a4.2,4.2,0,0,1,2,.42,2.83,2.83,0,0,1,1.43,1.88,5.93,5.93,0,0,1-.19,3,38.44,38.44,0,0,1-1.53,4.53q-1,2.54-2.36,5.46t-2.75,5.8Q124.21,31,123,33.63c-.82,1.76-1.5,3.31-2,4.64a12.47,12.47,0,0,0-.89,3.17c-.08.78.14,1.14.68,1.08a2.3,2.3,0,0,0,1.19-.75A18.53,18.53,0,0,0,123.55,40q.89-1.1,1.83-2.46c.63-.91,1.22-1.82,1.78-2.72s1.07-1.77,1.5-2.58a15.64,15.64,0,0,0,.94-2,.71.71,0,0,1,.47-.47,1.05,1.05,0,0,1,.61,0,.79.79,0,0,1,.45.38.57.57,0,0,1,0,.61c-.25.53-.61,1.26-1.08,2.18s-1,1.91-1.66,2.95S127,37.94,126.27,39A30.53,30.53,0,0,1,124,41.91a14.27,14.27,0,0,1-2.42,2.15,4.08,4.08,0,0,1-2.34.85,2.67,2.67,0,0,1-2.65-1.43,6.6,6.6,0,0,1-.68-3.87,20,20,0,0,1-1.88,2.6,8.82,8.82,0,0,1-2.11,1.85,5.62,5.62,0,0,1-2.44.85,5.55,5.55,0,0,1-2.81-.52,5.15,5.15,0,0,1-2.7-2.2A7.56,7.56,0,0,1,103,39a11.5,11.5,0,0,1,.28-3.56,23.94,23.94,0,0,1,1-3.4,25.23,25.23,0,0,1,2.51-4.91,16.18,16.18,0,0,1,2.93-3.33A10.57,10.57,0,0,1,112.9,22a9.57,9.57,0,0,1,3.33-.51,6.89,6.89,0,0,1,1.2.21,3.66,3.66,0,0,1,1.17.54,3.11,3.11,0,0,1,.92,1,3,3,0,0,1,.37,1.57,1.89,1.89,0,0,1-.42,1.36,1.25,1.25,0,0,1-1,.47,1.53,1.53,0,0,1-1-.38A1.22,1.22,0,0,1,117,25.26Z" transform="translate(-16.01 -2.91)" style="fill:#403f4c"/><path d="M140.77,32.88c-.47.92-1,1.91-1.67,2.95S137.76,37.94,137,39a30.53,30.53,0,0,1-2.32,2.91,14.62,14.62,0,0,1-2.41,2.15,4.14,4.14,0,0,1-2.35.85,2.7,2.7,0,0,1-1.62-.38,3.17,3.17,0,0,1-1.1-1.19,5.27,5.27,0,0,1-.56-1.88,9.39,9.39,0,0,1,0-2.37,18.21,18.21,0,0,1,.72-3.28c.36-1.16.78-2.31,1.25-3.47s.94-2.28,1.43-3.36.9-2.05,1.26-2.93a15.12,15.12,0,0,0,.75-2.2c.15-.6.11-1-.11-1.22s-.12-.41.3-.66a3.37,3.37,0,0,1,1.57-.42,4.15,4.15,0,0,1,2,.42,2.8,2.8,0,0,1,1.43,1.88,5.73,5.73,0,0,1-.14,3.3,27.37,27.37,0,0,1-1.57,4.06q-1,2.11-2.16,4.18c-.77,1.37-1.41,2.6-1.92,3.68a8.65,8.65,0,0,0-.89,2.58q-.12,1,1,.87a2.3,2.3,0,0,0,1.19-.75A18.53,18.53,0,0,0,134.29,40q.9-1.1,1.83-2.46c.63-.91,1.22-1.82,1.78-2.72S139,33,139.41,32.2a15.36,15.36,0,0,0,.93-2,.71.71,0,0,1,.47-.47,1.05,1.05,0,0,1,.61,0,.79.79,0,0,1,.45.38.57.57,0,0,1,0,.61C141.59,31.23,141.23,32,140.77,32.88Zm-2-14.61c.17-.38.35-.75.56-1.13s.39-.73.56-1.08a2,2,0,0,0,.26-.8,2.73,2.73,0,0,0-.7-1.92,4.9,4.9,0,0,0-1.58-1.13,4.18,4.18,0,0,0-1.57-.37c-.47,0-.7.11-.7.33a2,2,0,0,1-.28.8c-.19.34-.4.72-.64,1.12s-.44.79-.63,1.15a2,2,0,0,0-.28.87,2.7,2.7,0,0,0,.75,1.95,4.73,4.73,0,0,0,1.62,1.12,4.23,4.23,0,0,0,1.62.35c.5,0,.75-.12.75-.37A2.16,2.16,0,0,1,138.73,18.27Z" transform="translate(-16.01 -2.91)" style="fill:#403f4c"/><path d="M158.4,27.37a12.24,12.24,0,0,1-.7,3.35c-.41,1.17-.87,2.32-1.39,3.45s-1,2.19-1.54,3.21a26.11,26.11,0,0,0-1.2,2.65,4.18,4.18,0,0,0-.35,1.81c.05.45.38.68,1,.68a2.13,2.13,0,0,0,1.17-.68A15.91,15.91,0,0,0,157,40.05c.6-.73,1.21-1.56,1.85-2.48s1.25-1.84,1.81-2.75,1.06-1.77,1.5-2.6a16.32,16.32,0,0,0,.94-2,.69.69,0,0,1,.47-.47,1.05,1.05,0,0,1,.61,0,.78.78,0,0,1,.44.38.56.56,0,0,1,0,.61c-.25.53-.61,1.26-1.08,2.18s-1,1.91-1.66,2.95-1.34,2.11-2.09,3.17a30.53,30.53,0,0,1-2.32,2.91,14.67,14.67,0,0,1-2.42,2.15,4.08,4.08,0,0,1-2.34.85,2.39,2.39,0,0,1-1.6-.45,3.68,3.68,0,0,1-1.08-1.33,6.59,6.59,0,0,1-.58-1.9,7.67,7.67,0,0,1,0-2.14,18.87,18.87,0,0,1,.89-3.8c.44-1.25.92-2.44,1.44-3.58s1-2.19,1.52-3.15a19.85,19.85,0,0,0,1.13-2.48,3.22,3.22,0,0,0,.25-1.62c-.07-.38-.44-.55-1.1-.52a3.21,3.21,0,0,0-1.45.82,21.41,21.41,0,0,0-2,2c-.74.8-1.48,1.68-2.23,2.63s-1.42,1.87-2,2.74c-.59,1.22-1.21,2.44-1.85,3.64s-1.21,2.34-1.71,3.4A20.18,20.18,0,0,0,141.16,42a2.67,2.67,0,0,0,0,1.88c.13.25,0,.51-.3.77a2.06,2.06,0,0,1-1.27.43,2.85,2.85,0,0,1-1.6-.5,3.26,3.26,0,0,1-1.24-1.92,5.58,5.58,0,0,1,.05-3A29.83,29.83,0,0,1,138,35.74c.53-1.39,1.12-2.82,1.78-4.27s1.25-2.79,1.78-4a28.7,28.7,0,0,0,1.18-3.14c.25-.88.25-1.44,0-1.69s-.12-.41.3-.66a3.39,3.39,0,0,1,1.59-.42,4,4,0,0,1,2,.42A2.81,2.81,0,0,1,148,23.85a3.87,3.87,0,0,1,.14,1.34,9.67,9.67,0,0,1-.23,1.52c.59-.69,1.19-1.34,1.8-2a16.13,16.13,0,0,1,1.85-1.64A11,11,0,0,1,153.38,22a4.11,4.11,0,0,1,1.74-.42,2.82,2.82,0,0,1,2.72,1.59A7,7,0,0,1,158.4,27.37Z" transform="translate(-16.01 -2.91)" style="fill:#403f4c"/><path d="M175,25.26a1.31,1.31,0,0,1,.21-.71,2.05,2.05,0,0,1,.54-.56.78.78,0,0,0-.75-.56,2.2,2.2,0,0,0-1.46.58,10.34,10.34,0,0,0-1.71,1.83,25.16,25.16,0,0,0-1.9,3c-.65,1.17-1.31,2.48-2,3.91a19.4,19.4,0,0,0-1,2.93,14.4,14.4,0,0,0-.44,3,7.79,7.79,0,0,0,.28,2.51,2,2,0,0,0,1.17,1.4,1.85,1.85,0,0,0,2.07-.63,16,16,0,0,0,2.2-2.84,41,41,0,0,0,2.18-3.94c.71-1.44,1.35-2.75,2-3.94q.88-2.3,2-4.85l2.13-5.05c.71-1.65,1.38-3.25,2-4.78s1.19-2.9,1.64-4.1.78-2.19,1-3,.22-1.23.07-1.38-.12-.41.3-.66A3.37,3.37,0,0,1,187.06,7a4.15,4.15,0,0,1,1.95.42,2.8,2.8,0,0,1,1.43,1.88,5.72,5.72,0,0,1-.19,3,38.22,38.22,0,0,1-1.52,4.53q-1,2.54-2.37,5.46t-2.74,5.8c-.93,1.9-1.8,3.74-2.63,5.51s-1.5,3.31-2,4.64a13.38,13.38,0,0,0-.89,3.17c-.08.78.15,1.14.68,1.08a2.36,2.36,0,0,0,1.2-.75A21.55,21.55,0,0,0,181.58,40c.59-.73,1.2-1.55,1.82-2.46s1.22-1.82,1.79-2.72,1.06-1.77,1.5-2.58a15.64,15.64,0,0,0,.94-2,.69.69,0,0,1,.47-.47,1.06,1.06,0,0,1,.61,0,.81.81,0,0,1,.44.38.58.58,0,0,1,0,.61c-.25.53-.61,1.26-1.08,2.18s-1,1.91-1.67,2.95-1.33,2.11-2.08,3.17A32.24,32.24,0,0,1,182,41.91a14.23,14.23,0,0,1-2.41,2.15,4.11,4.11,0,0,1-2.35.85,2.67,2.67,0,0,1-2.65-1.43,6.68,6.68,0,0,1-.68-3.87,20,20,0,0,1-1.87,2.6,9,9,0,0,1-2.11,1.85,5.71,5.71,0,0,1-2.44.85,5.56,5.56,0,0,1-2.82-.52,5.15,5.15,0,0,1-2.7-2.2A7.86,7.86,0,0,1,161,39a11.81,11.81,0,0,1,.28-3.56,23.92,23.92,0,0,1,1-3.4,24.69,24.69,0,0,1,2.51-4.91,16.18,16.18,0,0,1,2.93-3.33A10.33,10.33,0,0,1,170.93,22a9.5,9.5,0,0,1,3.33-.51,7,7,0,0,1,1.19.21,3.62,3.62,0,0,1,1.18.54,3.08,3.08,0,0,1,.91,1,3,3,0,0,1,.38,1.57,1.85,1.85,0,0,1-.43,1.36,1.25,1.25,0,0,1-1,.47,1.55,1.55,0,0,1-1-.38A1.24,1.24,0,0,1,175,25.26Z" transform="translate(-16.01 -2.91)" style="fill:#403f4c"/><path d="M243.21,27.37a12.62,12.62,0,0,1-.7,3.35c-.41,1.17-.87,2.32-1.39,3.45s-1,2.19-1.54,3.21a26.11,26.11,0,0,0-1.2,2.65,4.18,4.18,0,0,0-.35,1.81c0,.45.38.68,1,.68a2.13,2.13,0,0,0,1.17-.68,15.91,15.91,0,0,0,1.64-1.79c.59-.73,1.21-1.56,1.85-2.48s1.25-1.84,1.81-2.75,1.06-1.77,1.5-2.6a16.32,16.32,0,0,0,.94-2,.69.69,0,0,1,.47-.47,1.05,1.05,0,0,1,.61,0,.81.81,0,0,1,.44.38.58.58,0,0,1,0,.61c-.25.53-.61,1.26-1.08,2.18s-1,1.91-1.66,2.95-1.34,2.11-2.09,3.17a32.19,32.19,0,0,1-2.32,2.91,14.67,14.67,0,0,1-2.42,2.15,4.08,4.08,0,0,1-2.34.85,2.39,2.39,0,0,1-1.6-.45,3.68,3.68,0,0,1-1.08-1.33,6.6,6.6,0,0,1-.59-1.9,8.07,8.07,0,0,1,0-2.14,18.22,18.22,0,0,1,.89-3.8c.44-1.25.92-2.44,1.43-3.58s1-2.19,1.53-3.15a19.61,19.61,0,0,0,1.12-2.48,3.25,3.25,0,0,0,.26-1.62c-.08-.38-.44-.55-1.1-.52a3.28,3.28,0,0,0-1.46.82,24.08,24.08,0,0,0-2,2c-.73.8-1.47,1.68-2.22,2.63s-1.43,1.87-2,2.74c-.6,1.22-1.21,2.44-1.85,3.64s-1.22,2.34-1.72,3.4A20,20,0,0,0,226,42a2.67,2.67,0,0,0,0,1.88c.12.25,0,.51-.31.77a2,2,0,0,1-1.26.43,2.85,2.85,0,0,1-1.6-.5,3.26,3.26,0,0,1-1.24-1.92,5.48,5.48,0,0,1,.05-3,28.4,28.4,0,0,1,1.22-3.92c.53-1.39,1.12-2.82,1.78-4.27s1.25-2.79,1.78-4a26.49,26.49,0,0,0,1.17-3.14c.25-.88.25-1.44,0-1.69s-.11-.41.31-.66a3.39,3.39,0,0,1,1.59-.42,4.1,4.1,0,0,1,1.95.42,2.81,2.81,0,0,1,1.41,1.88,3.87,3.87,0,0,1,.14,1.34,8.68,8.68,0,0,1-.24,1.52c.6-.69,1.2-1.34,1.81-2a16.13,16.13,0,0,1,1.85-1.64A11,11,0,0,1,238.19,22a4.07,4.07,0,0,1,1.74-.42,2.83,2.83,0,0,1,2.72,1.59A7,7,0,0,1,243.21,27.37Z" transform="translate(-16.01 -2.91)" style="fill:#403f4c"/><g id="1428f00f-4c7b-4b79-9b7c-181f9e1a1b50" data-name="Play"><path d="M269.64,27.51,249.27,18.6a3.5,3.5,0,0,0-1.79,0,1.83,1.83,0,0,0-1.75,2.31l3.62,24a1.85,1.85,0,0,0,2.35,1.69,3.4,3.4,0,0,0,1.71-.54l16.83-14.53c1.39-1.14,1-2.17,1-2.17S271.3,28.19,269.64,27.51Z" transform="translate(-16.01 -2.91)" style="fill:url(#76131e31-95a7-494f-be6b-a031a6084e4a)"/></g><path d="M218.74,12.17c0,.33-.32.49-.94.49a5.47,5.47,0,0,1-2-.45,6,6,0,0,1-2-1.42,3.43,3.43,0,0,1-.93-2.49,2.71,2.71,0,0,1,.35-1.1c.23-.46.49-1,.79-1.46s.57-1,.8-1.41a2.41,2.41,0,0,0,.34-1q0-.42.9-.42a4.84,4.84,0,0,1,2,.48,6.27,6.27,0,0,1,2,1.46,3.4,3.4,0,0,1,.9,2.42,2.57,2.57,0,0,1-.31,1c-.21.44-.45.9-.73,1.38a15.83,15.83,0,0,0-.72,1.42A2.85,2.85,0,0,0,218.74,12.17Z" transform="translate(-16.01 -2.91)" style="fill:#403f4c"/><g id="934a2bb6-9d62-4153-8dfe-7a3cec4ce0bc" data-name="36"><path d="M198.66,22.83h10.85a.52.52,0,1,0,0-1H198.66a.52.52,0,1,0,0,1Z" transform="translate(-16.01 -2.91)" style="fill:#403f4c"/><path d="M189,27.88H199.8a.52.52,0,1,0,0-1H189a.52.52,0,1,0,0,1Z" transform="translate(-16.01 -2.91)" style="fill:#403f4c"/><path d="M191.86,33.2a.51.51,0,0,0,.52.51h10.85a.52.52,0,1,0,0-1H192.38A.52.52,0,0,0,191.86,33.2Z" transform="translate(-16.01 -2.91)" style="fill:#403f4c"/><path d="M198.08,39.2h-9.76a.52.52,0,1,0,0,1h9.76a.52.52,0,0,0,0-1Z" transform="translate(-16.01 -2.91)" style="fill:#403f4c"/><path d="M215.63,26.07a2.82,2.82,0,1,0-2.83-2.82A2.82,2.82,0,0,0,215.63,26.07Z" transform="translate(-16.01 -2.91)" style="fill:#403f4c"/><path d="M220.27,25.26c-1.62,2.27-3.79,2.53-6.13,1.14l-1-.57c-3.75-2.23-7.5-1.36-10,2.17-1.07,1.49,1.41,2.91,2.46,1.43a4,4,0,0,1,4.76-1.77c-.92,1.61-1.73,3.21-2.87,5.47s-3.67,4.08-6.09,2.67a1.48,1.48,0,1,0-1.58,2.5,7.14,7.14,0,0,0,9.16-1.76l.22.1a18.34,18.34,0,0,1,4.39,2.59c.64.53,1.75,3.24,2.41,4.6a1.43,1.43,0,0,0,2.58-1.21c-.75-1.54-2-4.62-3-5.4a24,24,0,0,0-3.6-2.45c.88-1.69,1.79-3.37,2.74-5,3.06.93,6-.17,8-3.07C223.8,25.2,221.32,23.78,220.27,25.26Z" transform="translate(-16.01 -2.91)" style="fill:#403f4c"/></g></svg>